# xmcd
#
# Track frame offsets:
#	150
#	18820
#	35420
#	49672
#	61082
#	79362
#	94040
#	108892
#	124157
#	138905
#	149545
#	167362
#	182262
#	197577
#	212760
#	231110
#
# Disc length: 3236
#
# Revision: 1
# Processed by: cddbd v1.5.1PL0 Copyright (c) Steve Scherf et al.
# Submitted via: CDex 1.50
# Normalized: r0:DSETVAR1,TDELIM( - )
#
DISCID=cb0ca210
DTITLE=Various Artist - All Time Jazz Vocal Classics Vol.2
DYEAR=1900
DGENRE=Jazz
TTITLE0=Nat Gonella - Georgia On My Mind
TTITLE1=Joe Williams - Love In Here To Stay
TTITLE2=Bobby Scott - Wand'rin' Star
TTITLE3=Dinah Washington - What A Difference A Day Makes
TTITLE4=Joao Gilberto - Desafinado
TTITLE5=Mel Torme - Round About Midnight
TTITLE6=Ella Fitzgerald - My Reverie
TTITLE7=Chet Baker - Easy Living
TTITLE8=Shirley Horn - The Second Time Around
TTITLE9=Astrud Gilberto - Agua De Beber
TTITLE10=Louis Armstrong - I Gotta Right To Sing The Blues
TTITLE11=Sarah Vaugnan - Stardust
TTITLE12=Louis Jordan - I'm Gonna Move To The Outskirts Of Town
TTITLE13=Luiz Bonfa - Morning Of The Carniva
TTITLE14=Helen Merrill - If You Go Away
TTITLE15=Nina Simone - I Put A Spell On You
EXTD=
EXTT0=
EXTT1=
EXTT2=
EXTT3=
EXTT4=
EXTT5=
EXTT6=
EXTT7=
EXTT8=
EXTT9=
EXTT10=
EXTT11=
EXTT12=
EXTT13=
EXTT14=
EXTT15=
PLAYORDER=
